<?xml version="1.0" standalone="no"?>
<!DOCTYPE svg PUBLIC "-//W3C//DTD SVG 20010904//EN"
 "http://www.w3.org/TR/2001/REC-SVG-20010904/DTD/svg10.dtd">
<svg version="1.0" xmlns="http://www.w3.org/2000/svg"
 width="1707.000000pt" height="251.000000pt" viewBox="0 0 1707.000000 251.000000"
 preserveAspectRatio="xMidYMid meet">
 <rect width="100%" height="100%" fill="#ffffff"/>

<g transform="translate(0.000000,251.000000) scale(0.100000,-0.100000)"
fill="#252830" stroke="none">
<path d="M0 2405 l0 -105 278 5 c152 3 684 10 1182 15 498 6 1270 15 1715 20
446 5 1195 14 1665 20 470 6 1229 15 1685 20 457 5 1213 14 1680 20 468 6
1224 15 1680 20 457 5 1215 14 1685 20 470 6 1217 15 1660 20 443 5 1224 15
1735 21 512 6 1184 14 1495 18 311 4 -3266 8 -7947 9 l-8513 2 0 -105z"/>
<path d="M16440 2092 c-338 -208 -1240 -759 -2005 -1226 -764 -467 -1394 -853
-1400 -857 -5 -5 881 -9 2013 -9 l2022 0 0 1235 c0 679 -3 1235 -7 1234 -5 0
-285 -170 -623 -377z"/>
<path d="M0 1095 l0 -1095 6494 0 6493 0 -3 23 c-3 19 187 165 1427 1094
l1431 1073 -7921 0 -7921 0 0 -1095z m2228 730 c82 -28 92 -38 72 -73 -16 -29
-70 -152 -70 -161 0 -4 -8 -15 -18 -24 -17 -16 -22 -15 -73 13 -85 45 -169 63
-269 57 -283 -17 -507 -212 -601 -522 -17 -56 -12 -180 9 -227 46 -99 116
-140 252 -146 105 -4 189 11 297 54 36 14 69 22 73 18 5 -5 -7 -40 -25 -79
-19 -38 -42 -89 -51 -112 -15 -36 -25 -45 -64 -58 -139 -46 -367 -60 -485 -30
-118 31 -212 105 -256 202 -32 69 -44 177 -31 274 10 75 37 178 61 234 115
265 293 448 533 547 129 53 222 68 403 64 144 -2 168 -6 243 -31z m995 15 c77
-24 160 -83 199 -142 117 -174 61 -503 -134 -785 -54 -78 -175 -199 -250 -251
-80 -55 -183 -101 -275 -123 -120 -29 -309 -24 -395 10 -70 27 -155 102 -186
163 -31 61 -51 162 -47 233 3 66 39 228 62 284 127 310 378 543 657 612 104
26 284 25 369 -1z m3605 -15 c82 -28 92 -38 72 -73 -16 -29 -70 -152 -70 -161
0 -4 -8 -15 -18 -24 -17 -16 -22 -15 -73 13 -85 45 -169 63 -269 57 -283 -17
-507 -212 -601 -522 -17 -56 -12 -180 9 -227 46 -99 116 -140 252 -146 105 -4
189 11 297 54 36 14 69 22 73 18 5 -5 -7 -40 -25 -79 -19 -38 -42 -89 -51
-112 -15 -36 -25 -45 -64 -58 -139 -46 -367 -60 -485 -30 -118 31 -212 105
-256 202 -32 69 -44 177 -31 274 10 75 37 178 61 234 115 265 293 448 533 547
129 53 222 68 403 64 144 -2 168 -6 243 -31z m-2615 8 c3 -5 8 -55 12 -113 4
-58 8 -107 10 -110 2 -3 6 -52 10 -110 4 -58 9 -108 11 -111 2 -3 4 -46 5 -96
l2 -90 51 61 c28 34 165 177 305 319 l254 257 154 0 c119 0 153 -3 153 -13 0
-11 -39 -104 -120 -282 -12 -27 -29 -66 -37 -85 -8 -19 -23 -53 -33 -75 -10
-22 -25 -56 -33 -75 -18 -42 -36 -84 -112 -255 -32 -71 -66 -149 -76 -172 -22
-50 -46 -104 -129 -290 l-24 -53 -113 0 c-119 0 -127 4 -104 48 5 9 16 34 25
55 9 20 23 52 30 70 8 17 43 95 76 172 34 77 70 159 81 183 10 23 27 61 38 85
10 23 28 63 40 90 11 26 30 67 41 92 11 25 30 66 42 93 13 26 24 51 27 56 4 9
-330 -330 -479 -486 l-93 -98 -83 0 c-45 0 -85 3 -87 8 -3 4 -8 54 -12 112 -4
58 -8 116 -10 130 -4 39 -16 198 -20 268 -2 35 -5 65 -8 68 -2 3 -15 -21 -27
-53 -13 -32 -33 -80 -46 -108 -12 -27 -31 -70 -42 -95 -11 -25 -45 -103 -77
-175 -32 -71 -66 -148 -75 -170 -10 -22 -28 -62 -40 -90 -32 -71 -63 -142 -90
-202 l-24 -53 -113 0 c-123 0 -125 1 -99 56 18 36 62 137 101 229 7 17 25 57
40 90 15 33 50 112 77 175 27 63 60 138 73 165 12 28 29 66 38 85 15 36 49
113 73 165 7 17 34 77 59 135 25 58 55 126 67 153 l22 47 142 0 c79 0 145 -3
147 -7z m1497 -6 c0 -11 -40 -105 -124 -292 -31 -68 -72 -161 -101 -230 -15
-36 -34 -77 -110 -250 -32 -71 -66 -148 -75 -170 -10 -22 -27 -60 -38 -85 -11
-25 -29 -65 -40 -90 -10 -25 -32 -73 -47 -107 l-28 -63 -123 0 c-135 0 -137 1
-110 56 18 36 61 134 101 229 7 17 22 50 33 75 11 25 48 108 82 185 33 77 67
154 74 170 8 17 24 53 36 80 12 28 28 64 36 80 7 17 40 91 72 165 33 74 72
163 87 198 l28 62 124 0 c96 0 123 -3 123 -13z m2303 5 c3 -4 -10 -138 -28
-297 -18 -160 -36 -321 -40 -360 -4 -38 -9 -81 -10 -95 -1 -14 -6 -59 -9 -100
-4 -41 -9 -88 -12 -104 -5 -21 27 15 107 120 63 83 233 306 379 497 l265 346
138 0 c149 1 155 -2 114 -50 -12 -14 -244 -301 -516 -638 l-495 -611 -127 0
c-119 0 -128 1 -134 20 -3 11 -4 23 -2 28 3 4 8 52 12 107 3 55 8 107 10 115
2 8 7 58 10 110 3 52 8 102 10 110 2 8 7 56 10 105 3 50 8 104 10 120 3 17 7
64 10 105 3 41 8 95 10 120 7 54 12 117 20 230 10 143 -4 130 140 130 68 0
126 -3 128 -8z m1580 1 c3 -5 1 -51 -3 -103 -5 -52 -11 -140 -14 -195 -13
-194 -16 -251 -21 -305 -3 -30 -7 -95 -11 -145 -3 -49 -7 -110 -9 -135 -2 -25
-7 -93 -10 -152 -4 -59 -10 -140 -13 -180 l-7 -73 -129 -3 -128 -3 5 88 c4 48
9 121 13 161 l7 72 -236 0 -236 0 -123 -157 -124 -158 -142 -3 c-89 -2 -142 1
-142 7 0 6 13 25 29 43 15 18 107 130 203 248 95 118 223 275 283 349 200 244
299 365 415 509 l115 142 137 0 c75 0 139 -3 141 -7z m807 -3 c0 -5 -11 -33
-24 -62 -13 -29 -34 -75 -46 -103 -12 -27 -33 -75 -47 -105 -38 -84 -183 -411
-200 -450 -8 -19 -19 -44 -24 -55 -17 -38 -37 -143 -33 -174 5 -46 29 -86 66
-113 29 -20 45 -23 123 -23 78 0 97 4 141 27 97 51 188 174 267 363 14 33 39
89 55 125 16 36 39 86 51 113 12 26 31 68 42 95 12 26 30 66 40 90 42 94 62
139 84 187 12 28 25 60 29 73 7 21 11 22 137 22 71 0 129 -2 129 -4 0 -5 -23
-59 -60 -141 -89 -200 -97 -218 -113 -255 -8 -19 -27 -62 -42 -95 -15 -33 -52
-115 -81 -182 -113 -260 -179 -368 -283 -470 -77 -76 -185 -134 -296 -158
-108 -24 -310 -18 -376 12 -184 82 -226 278 -119 548 24 60 168 387 230 523
20 43 41 89 79 175 l21 47 125 0 c74 0 125 -4 125 -10z m1300 -4 c0 -8 -22
-63 -49 -124 -27 -61 -57 -128 -66 -149 -9 -21 -25 -56 -35 -78 -10 -22 -25
-56 -33 -75 -8 -19 -24 -56 -36 -82 -12 -27 -29 -67 -40 -90 -10 -24 -44 -101
-76 -173 -32 -71 -69 -155 -82 -185 -13 -30 -30 -68 -38 -85 l-14 -30 240 -3
c219 -2 239 -4 238 -20 0 -9 -17 -55 -38 -102 l-38 -85 -372 -3 c-404 -2 -386
-5 -357 54 18 36 62 137 101 229 7 17 25 57 40 90 15 33 50 112 77 175 27 63
60 138 73 165 12 28 29 66 38 85 15 36 49 113 73 165 7 17 34 77 59 135 25 58
55 126 67 153 l22 47 123 0 c98 0 123 -3 123 -14z m1360 4 c0 -6 -4 -18 -10
-28 -5 -9 -25 -52 -44 -94 l-35 -78 -180 0 -181 0 -19 -42 c-10 -24 -29 -65
-41 -93 -12 -27 -28 -63 -36 -80 -7 -16 -46 -106 -87 -200 -70 -159 -92 -210
-137 -310 -10 -22 -25 -57 -34 -77 -9 -21 -23 -53 -31 -70 -8 -18 -32 -73 -53
-123 l-39 -90 -127 -3 c-70 -1 -126 1 -126 6 0 9 17 49 70 167 21 46 51 115
81 183 20 44 27 62 63 145 8 17 25 57 39 87 13 30 39 89 57 130 43 100 93 213
136 308 13 29 24 55 24 57 0 3 -79 5 -175 5 -203 0 -196 -6 -145 105 17 36 30
69 30 73 0 30 29 32 512 32 323 0 488 -3 488 -10z m-5720 -698 c0 -5 -8 -26
-19 -48 -10 -21 -26 -58 -37 -81 l-18 -43 -258 0 c-144 0 -258 4 -258 9 0 5
17 45 37 90 l37 81 258 0 c142 0 258 -4 258 -8z"/>
<path d="M2888 1629 c-149 -35 -308 -178 -397 -356 -48 -96 -49 -99 -70 -188
-33 -144 -7 -250 77 -309 58 -41 168 -48 262 -16 198 66 380 287 434 527 30
134 18 219 -40 283 -56 62 -158 85 -266 59z"/>
<path d="M9143 1305 l-192 -245 169 0 c94 0 170 3 171 8 0 4 2 23 4 42 13 112
26 234 30 295 3 39 8 87 11 108 3 20 4 37 2 37 -1 0 -89 -111 -195 -245z"/>
</g>
</svg>
